<?xml version="1.0" encoding="utf-8"?>
<!-- Generator: Adobe Illustrator 19.0.0, SVG Export Plug-In . SVG Version: 6.00 Build 0)  -->
<svg version="1.1" id="Layer_1" xmlns="http://www.w3.org/2000/svg" xmlns:xlink="http://www.w3.org/1999/xlink" x="0px" y="0px"
	 viewBox="0 0 330.1 822.7" style="enable-background:new 0 0 330.1 822.7;" xml:space="preserve">
<style type="text/css">
	.st0{fill:#F05C51;}
</style>
<path class="st0" d="M273.6,86.4c20.4,0,37-16.6,37-37c0-20.4-16.6-37-37-37c-20.4,0-37,16.6-37,37
	C236.6,69.9,253.2,86.4,273.6,86.4"/>
<path class="st0" d="M181.5,395.2c0,0-90,0-133.1,0.1c-15.2,0-27.7,12.4-27.7,27.7c0,7.4,2.9,14.4,8.1,19.6
	c5.2,5.2,12.2,8.1,19.6,8.1c42.9-0.1,132.1-0.1,133.1-0.1c32.4,0,58.8,26.4,58.8,58.8c0,32.4-26.4,58.8-58.8,58.8l-133.2,0.1
	c-15.2,0-27.6,12.4-27.6,27.6c0,15.2,12.4,27.6,27.6,27.6l133.2,0.1c32.4,0,58.8,26.4,58.8,58.8c0,32.4-26.4,58.8-58.8,58.8
	c0,0-89.9,0-133-0.1c-7.4,0-14.4,2.9-19.6,8.1c-5.2,5.2-8.1,12.2-8.1,19.6c0,15.3,12.4,27.7,27.7,27.7c43.1,0,133.1,0.1,133.1,0.1
	c63,0,114.2-51.2,114.2-114.2c0-32.6-13.3-62.6-37.4-84.4l-2.3-2.1l2.3-2.1c24.1-21.9,37.4-51.8,37.4-84.4
	C295.7,446.4,244.4,395.2,181.5,395.2"/>
<path class="st0" d="M158.3,350.2c75.7,0,137.4-61.6,137.4-137.4c0-75.7-61.6-137.4-137.4-137.4c-75.8,0-137.4,61.6-137.4,137.4
	C20.9,288.6,82.6,350.2,158.3,350.2 M158.3,127.6c47,0,85.2,38.2,85.2,85.2c0,47-38.2,85.2-85.2,85.2c-47,0-85.2-38.2-85.2-85.2
	C73.1,165.9,111.3,127.6,158.3,127.6"/>
</svg>
